<?xml version="1.0" encoding="UTF-8" standalone="no"?>
<!DOCTYPE svg PUBLIC "-//W3C//DTD SVG 1.1//EN" "http://www.w3.org/Graphics/SVG/1.1/DTD/svg11.dtd">
<svg width="100%" height="100%" viewBox="0 0 24 24" version="1.1" xmlns="http://www.w3.org/2000/svg" xmlns:xlink="http://www.w3.org/1999/xlink" xml:space="preserve" xmlns:serif="http://www.serif.com/" style="fill-rule:evenodd;clip-rule:evenodd;stroke-linejoin:round;stroke-miterlimit:2;">
    <g transform="matrix(1,0,0,1,0,-32)">
        <g transform="matrix(0.5,0,0,0.5,0,32)">
            <rect id="Book" x="0" y="0" width="48" height="48" style="fill:none;"/>
            <g id="Book1" serif:id="Book">
                <g transform="matrix(2,0,0,2,0,-64)">
                    <path d="M11.55,51.6C7.864,48.836 4.178,50.749 2.335,51.671C2.103,51.787 1.827,51.775 1.606,51.638C1.385,51.501 1.25,51.26 1.25,51L1.25,38C1.25,37.716 1.411,37.456 1.665,37.329C3.747,36.288 7.838,34.308 12,37.082C16.162,34.308 20.253,36.288 22.335,37.329C22.589,37.456 22.75,37.716 22.75,38L22.75,51C22.75,51.26 22.615,51.501 22.394,51.638C22.173,51.775 21.897,51.787 21.665,51.671C19.822,50.749 16.136,48.836 12.45,51.6C12.183,51.8 11.817,51.8 11.55,51.6ZM11.25,38.385C7.924,36.115 4.639,37.532 2.75,38.464C2.75,38.464 2.75,49.808 2.75,49.808C4.837,48.867 7.985,47.882 11.25,49.631L11.25,38.385ZM12.75,49.631C16.015,47.882 19.163,48.867 21.25,49.808C21.25,49.808 21.25,38.464 21.25,38.464C19.361,37.532 16.076,36.115 12.75,38.385L12.75,49.631Z"/>
                </g>
            </g>
        </g>
    </g>
</svg>
