<?xml version="1.0" encoding="UTF-8" standalone="no"?>
<!DOCTYPE svg PUBLIC "-//W3C//DTD SVG 1.1//EN" "http://www.w3.org/Graphics/SVG/1.1/DTD/svg11.dtd">
<svg width="100%" height="100%" viewBox="0 0 24 24" version="1.1" xmlns="http://www.w3.org/2000/svg" xmlns:xlink="http://www.w3.org/1999/xlink" xml:space="preserve" xmlns:serif="http://www.serif.com/" style="fill-rule:evenodd;clip-rule:evenodd;stroke-linejoin:round;stroke-miterlimit:2;">
    <g transform="matrix(1,0,0,1,-32,-32)">
        <g transform="matrix(0.5,0,0,0.5,32,32)">
            <rect id="Bookmark" x="0" y="0" width="48" height="48" style="fill:none;"/>
            <g id="Bookmark1" serif:id="Bookmark">
                <g transform="matrix(1,0,0,1,-2,2)">
                    <path d="M26,33.532C25.672,33.688 24.366,34.322 23.342,34.986C19.767,37.305 14.937,41.171 14.937,41.171C14.487,41.532 13.87,41.602 13.35,41.352C12.831,41.102 12.5,40.577 12.5,40L12.5,6C12.5,5.312 12.968,4.712 13.636,4.545C21.879,2.484 30.121,2.484 38.364,4.545C39.032,4.712 39.5,5.312 39.5,6L39.5,40C39.5,40.577 39.169,41.102 38.65,41.352C38.13,41.602 37.513,41.532 37.063,41.171C37.063,41.171 32.233,37.305 28.658,34.986C27.634,34.322 26.328,33.688 26,33.532ZM36.5,36.93C36.5,36.93 36.5,7.185 36.5,7.185C29.5,5.606 22.5,5.606 15.5,7.185C15.5,7.185 15.5,36.93 15.5,36.93C17.264,35.581 19.683,33.784 21.71,32.47C22.899,31.698 23.968,31.09 24.724,30.789C25.245,30.582 25.684,30.5 26,30.5C26.316,30.5 26.755,30.582 27.276,30.789C28.032,31.09 29.101,31.698 30.29,32.47C32.317,33.784 34.736,35.581 36.5,36.93Z"/>
                </g>
            </g>
        </g>
    </g>
</svg>
