<?xml version="1.0" encoding="UTF-8" standalone="no"?>
<!DOCTYPE svg PUBLIC "-//W3C//DTD SVG 1.1//EN" "http://www.w3.org/Graphics/SVG/1.1/DTD/svg11.dtd">
<svg width="100%" height="100%" viewBox="0 0 24 24" version="1.1" xmlns="http://www.w3.org/2000/svg" xmlns:xlink="http://www.w3.org/1999/xlink" xml:space="preserve" xmlns:serif="http://www.serif.com/" style="fill-rule:evenodd;clip-rule:evenodd;stroke-linejoin:round;stroke-miterlimit:2;">
    <g transform="matrix(1,0,0,1,-96,-32)">
        <g transform="matrix(1,0,0,1,-41.7748,32)">
            <rect id="Highlight" x="137.775" y="0" width="24" height="24" style="fill:none;"/>
            <g id="Highlight1" serif:id="Highlight">
                <g transform="matrix(1,0,0,1,41.7748,-32)">
                    <path d="M106.501,51.56L105.53,52.53C105.39,52.671 105.199,52.75 105,52.75C104.361,52.75 102.57,52.382 101.012,51.845C99.906,51.464 98.923,50.984 98.47,50.53C98.177,50.237 98.177,49.763 98.47,49.47L101.44,46.499C101.177,46.205 101.187,45.752 101.47,45.47L111.47,35.47C111.698,35.241 112.047,35.185 112.335,35.329C114.47,36.396 116.604,38.53 117.671,40.665C117.815,40.953 117.759,41.302 117.53,41.53L107.53,51.53C107.248,51.813 106.795,51.823 106.501,51.56ZM102.5,47.561C102.225,47.836 100.169,49.892 100.168,49.892C100.542,50.08 101.009,50.258 101.5,50.427C102.679,50.833 104.004,51.149 104.709,51.23L105.439,50.5L102.5,47.561ZM112.135,36.926C112.135,36.926 103.061,46 103.061,46L107,49.939C107,49.939 116.074,40.865 116.074,40.865C115.173,39.319 113.681,37.827 112.135,36.926Z"/>
                </g>
            </g>
        </g>
    </g>
</svg>
