<?xml version="1.0" encoding="UTF-8" standalone="no"?>
<!DOCTYPE svg PUBLIC "-//W3C//DTD SVG 1.1//EN" "http://www.w3.org/Graphics/SVG/1.1/DTD/svg11.dtd">
<svg width="100%" height="100%" viewBox="0 0 24 24" version="1.1" xmlns="http://www.w3.org/2000/svg" xmlns:xlink="http://www.w3.org/1999/xlink" xml:space="preserve" xmlns:serif="http://www.serif.com/" style="fill-rule:evenodd;clip-rule:evenodd;stroke-linejoin:round;stroke-miterlimit:2;">
    <g transform="matrix(1,0,0,1,-64,-32)">
        <g transform="matrix(0.5,0,0,0.5,64,32)">
            <rect id="Profile" x="0" y="0" width="48" height="48" style="fill:none;"/>
            <g id="Profile1" serif:id="Profile">
                <g transform="matrix(2,0,0,2,-128,-64)">
                    <path d="M79.255,43.74C84.75,45.583 84.75,52 84.75,52C84.75,52.344 84.516,52.644 84.182,52.728C80.091,53.75 71.909,53.75 67.818,52.728C67.484,52.644 67.25,52.344 67.25,52C67.25,52 67.25,45.583 72.745,43.74C71.239,42.703 70.25,40.966 70.25,39C70.25,35.826 72.826,33.25 76,33.25C79.174,33.25 81.75,35.826 81.75,39C81.75,40.966 80.761,42.703 79.255,43.74ZM76,44.75C70.021,44.75 68.973,49.682 68.789,51.41C72.643,52.204 79.357,52.204 83.211,51.41C83.027,49.681 81.979,44.75 76,44.75ZM76,43.25C78.346,43.25 80.25,41.346 80.25,39C80.25,36.654 78.346,34.75 76,34.75C73.654,34.75 71.75,36.654 71.75,39C71.75,41.346 73.654,43.25 76,43.25Z"/>
                </g>
            </g>
        </g>
    </g>
</svg>
